<svg xmlns="http://www.w3.org/2000/svg" width="512" height="512" viewBox="0 0 512 512">
  <defs>
    <linearGradient id="g" x1="110" y1="70" x2="410" y2="440" gradientUnits="userSpaceOnUse">
      <stop offset="0" stop-color="#E0AA58"/>
      <stop offset="0.45" stop-color="#C9791C"/>
      <stop offset="1" stop-color="#9E5C10"/>
    </linearGradient>
    <filter id="shadow" x="-25%" y="-25%" width="150%" height="150%">
      <feDropShadow dx="0" dy="18" stdDeviation="18" flood-color="#6B3C09" flood-opacity="0.22"/>
    </filter>
    <filter id="bubbleShadow" x="-25%" y="-25%" width="150%" height="150%">
      <feDropShadow dx="0" dy="12" stdDeviation="12" flood-color="#C9791C" flood-opacity="0.26"/>
    </filter>
  </defs>
  <circle cx="256" cy="256" r="212" fill="#F8EBDD" opacity="0.78"/>
  <g transform="rotate(-10 256 256)" filter="url(#shadow)">
    <rect x="156" y="70" width="188" height="344" rx="38" fill="#fffdf9" opacity="0.88" stroke="url(#g)" stroke-width="14"/>
    <rect x="216" y="88" width="68" height="9" rx="4.5" fill="url(#g)" opacity="0.9"/>
    <rect x="226" y="386" width="48" height="8" rx="4" fill="url(#g)" opacity="0.72"/>
  </g>
  <g transform="rotate(-4 310 276)" filter="url(#bubbleShadow)">
    <rect x="282" y="238" width="126" height="96" rx="24" fill="#C9791C"/>
    <path d="M318 273c0-13 10-22 22-22 8 0 15 4 20 10 5-6 12-10 21-10 12 0 21 9 21 22 0 27-42 51-42 51s-42-24-42-51z" fill="#FFFFFF"/>
  </g>
</svg>
