<svg xmlns="http://www.w3.org/2000/svg" width="512" height="512" viewBox="0 0 512 512">
  <defs><filter id="s" x="-20%" y="-20%" width="140%" height="140%"><feDropShadow dx="0" dy="10" stdDeviation="14" flood-color="#6B3C09" flood-opacity="0.08"/></filter></defs>
  <circle cx="256" cy="256" r="208" fill="#F8EBDD" opacity="0.88"/>
  <g filter="url(#s)"><path d="M285 118v184c0 63-51 103-113 88-48-12-79-55-70-104 10-50 55-82 106-74v54c-21-8-44 4-49 26-6 24 10 45 34 48 26 4 48-15 48-43V118h44c9 54 42 86 97 95v54c-41-3-74-19-97-45z" fill="#C9791C"/></g>
</svg>
