<svg width="640" height="390" viewBox="0 0 640 390" fill="none" xmlns="http://www.w3.org/2000/svg">
  <rect width="640" height="390" fill="#fff8ef"/>
  <rect width="640" height="390" fill="url(#warm)"/>
  <path d="M0 54h640" stroke="#ddcdbb" stroke-width="2"/>
  <path d="M56 78h520" stroke="#9b9289" stroke-width="2" stroke-linecap="round"/>
  <path d="M70 94h492" stroke="#f1a83e" stroke-width="6" stroke-linecap="round"/>
  <path d="M74 94h482" stroke="#fff6dc" stroke-width="2" stroke-linecap="round"/>
  <path d="M128 82v228M174 82v240M220 82v226M266 82v242M312 82v214M358 82v238M404 82v226M450 82v244M496 82v218" stroke="#d6c7b8" stroke-width="1.3"/>
  <path d="M112 310c52 26 114 30 186 12M346 320c48 14 96 12 144-8" stroke="#b8aa9d" stroke-width="1.4" stroke-linecap="round"/>
  <path d="M454 142h100v156H454z" stroke="#91877d" stroke-width="1.5"/>
  <path d="M466 156h76v128h-76z" stroke="#c8b9aa" stroke-width="1.2"/>
  <path d="M24 342h584" stroke="#d8c9b8" stroke-width="1.4"/>
  <defs>
    <radialGradient id="warm" cx="0" cy="0" r="1" gradientUnits="userSpaceOnUse" gradientTransform="translate(320 112) rotate(90) scale(268 504)">
      <stop stop-color="#f3dec4" stop-opacity=".74"/>
      <stop offset="1" stop-color="#fffaf4" stop-opacity="0"/>
    </radialGradient>
  </defs>
</svg>
